<svg width="22" height="61" viewBox="0 0 22 61" fill="none" xmlns="http://www.w3.org/2000/svg">
<path d="M2.00848 30.344L1.17876 31.5936L2.00848 30.344ZM2.00842 30.3437L3.29919 31.1079L2.00842 30.3437ZM2.00886 30.3443L0.720029 31.1117L2.00886 30.3443ZM2.00872 30.3441L2.83843 29.0945L2.00872 30.3441ZM18.7397 58.4433L20.0285 57.6759L18.7397 58.4433ZM19.5978 57.9323L18.309 58.6997L19.5978 57.9323ZM18.7397 2.24397L17.4508 1.47656L18.7397 2.24397ZM2.00871 30.3432L1.17666 29.0951L2.00871 30.3432ZM2.00885 30.343L3.29768 31.1104L2.00885 30.343ZM2.00843 30.3437L0.717652 29.5796L2.00843 30.3437ZM2.00843 30.3435L3.29939 29.5797L2.00843 30.3435ZM2.00848 30.3433L2.84053 31.5914L2.00848 30.3433ZM1.17666 29.0951L1.17643 29.0952L2.84053 31.5914L2.84076 31.5912L1.17666 29.0951ZM3.29768 31.1104L20.0285 3.01137L17.4508 1.47656L0.720013 29.5756L3.29768 31.1104ZM18.309 1.98752L3.70972 26.5066L6.28739 28.0414L20.8866 3.52232L18.309 1.98752ZM20.8866 57.1649L6.28739 32.6458L3.70972 34.1806L18.309 58.6997L20.8866 57.1649ZM0.720029 31.1117L17.4508 59.2107L20.0285 57.6759L3.2977 29.5769L0.720029 31.1117ZM2.83843 29.0945L2.83819 29.0943L1.17876 31.5936L1.179 31.5937L2.83843 29.0945ZM3.29919 31.1079L3.2992 31.1079L0.717652 29.5796L0.71765 29.5796L3.29919 31.1079ZM2.83819 29.0943C3.50321 29.5359 3.70585 30.4209 3.29919 31.1079L0.71765 29.5796C0.3109 30.2667 0.51359 31.1519 1.17876 31.5936L2.83819 29.0943ZM3.2977 29.5769C3.18268 29.3837 3.02572 29.2188 2.83843 29.0945L1.179 31.5937C0.991828 31.4695 0.834973 31.3047 0.720029 31.1117L3.2977 29.5769ZM18.6142 57.3549C19.0906 57.0377 19.7356 57.1841 20.0285 57.6759L17.4508 59.2107C18.036 60.1934 19.3247 60.4859 20.2768 59.8521L18.6142 57.3549ZM18.309 58.6997C18.0362 58.2417 18.1705 57.6503 18.6142 57.3549L20.2768 59.8521C21.1634 59.2618 21.4315 58.0801 20.8866 57.1649L18.309 58.6997ZM3.70972 26.5066C2.30196 28.8709 2.30195 31.8163 3.70972 34.1806L6.28739 32.6458C5.44273 31.2272 5.44273 29.46 6.28739 28.0414L3.70972 26.5066ZM18.6142 3.33235C18.1705 3.03693 18.0362 2.44553 18.309 1.98752L20.8866 3.52232C21.4315 2.60716 21.1634 1.42549 20.2768 0.835204L18.6142 3.33235ZM20.0285 3.01137C19.7356 3.5032 19.0906 3.64959 18.6142 3.33235L20.2768 0.835204C19.3247 0.201335 18.036 0.493835 17.4508 1.47656L20.0285 3.01137ZM2.84076 31.5912C3.02703 31.467 3.18315 31.3028 3.29768 31.1104L0.720013 29.5756C0.834473 29.3834 0.9905 29.2192 1.17666 29.0951L2.84076 31.5912ZM0.717463 31.1074C0.43871 30.6362 0.438782 30.0506 0.717652 29.5796L3.2992 31.1079C3.57813 30.6367 3.5782 30.051 3.29939 29.5797L0.717463 31.1074ZM3.29939 29.5797C3.70524 30.2657 3.5037 31.1493 2.84053 31.5914L1.17643 29.0952C0.513104 29.5374 0.311513 30.4212 0.717463 31.1074L3.29939 29.5797Z" fill="#FF9383"/>
</svg>
