<svg width="80" height="81" viewBox="0 0 80 81" fill="none" xmlns="http://www.w3.org/2000/svg">
<path d="M63.1493 20.0102H16.6182C11.1115 20.0102 6.6473 24.4896 6.6473 30.0153V39.0895L29.3724 46.6904H50.3952L73.1203 39.0895V30.0153C73.1203 24.4896 68.6561 20.0102 63.1493 20.0102Z" fill="#F899CC"/>
<path d="M33.2365 20.0102V16.6751H46.5311V20.0102H53.1784V16.6751C53.1742 12.9931 50.2006 10.0093 46.5311 10.0051H33.2365C29.567 10.0093 26.5934 12.9931 26.5892 16.6751V20.0102H33.2365ZM29.3724 46.6904L6.6473 39.0893V60.0305C6.65332 65.5537 11.1139 70.0296 16.6182 70.0356H63.1493C68.6537 70.0296 73.1143 65.5537 73.1203 60.0305V39.0893L50.3952 46.6904H29.3724Z" fill="#E8CEE8"/>
<path d="M63.0528 20.3003H16.5217C11.0149 20.3003 6.55078 24.7797 6.55078 30.3054V39.3796L29.2759 46.9805H50.2986L73.0238 39.3796V30.3054C73.0238 24.7797 68.5596 20.3003 63.0528 20.3003Z" fill="#FF9383"/>
<path d="M33.14 20.3968V17.0779H46.4346V20.3968H53.0819V17.0779C53.0777 13.4136 50.104 10.4442 46.4346 10.4401H33.14C29.4705 10.4442 26.4969 13.4136 26.4927 17.0779V20.3968H33.14ZM29.2759 46.9482L6.55078 39.3838V60.2239C6.5568 65.7204 11.0174 70.1746 16.5217 70.1806H63.0528C68.5571 70.1746 73.0177 65.7204 73.0238 60.2239V39.3838L50.2986 46.9482H29.2759Z" fill="#E8CEE8"/>
</svg>
