<svg width="22" height="61" viewBox="0 0 22 61" fill="none" xmlns="http://www.w3.org/2000/svg">
<path d="M19.6597 30.3439L20.4917 31.592L19.6597 30.3439ZM19.6593 30.3443L20.9481 31.1117L19.6593 30.3443ZM19.6594 30.3441L18.8274 29.096L19.6594 30.3441ZM16.6696 33.4132L17.9584 34.1806L16.6696 33.4132ZM2.07036 2.75491L3.35919 1.98751L2.07036 2.75491ZM2.92849 2.24396L1.63966 3.01136L2.92849 2.24396ZM2.22267 2.08377L1.39137 0.835197L2.22267 2.08377ZM19.6594 30.3431L20.4915 29.0951L19.6594 30.3431ZM19.6593 30.343L18.3705 31.1104L19.6593 30.343ZM19.6597 30.3437L18.3698 31.1093L19.6597 30.3437ZM19.6597 30.3435L18.3679 29.5812L19.6597 30.3435ZM19.6597 30.3433L20.4917 29.0952L19.6597 30.3433ZM18.8274 31.5912L18.8276 31.5914L20.4917 29.0952L20.4915 29.0951L18.8274 31.5912ZM20.9481 29.5756L4.21732 1.47655L1.63966 3.01136L18.3705 31.1104L20.9481 29.5756ZM0.781521 3.52231L15.3808 28.0414L17.9584 26.5066L3.35919 1.98751L0.781521 3.52231ZM3.35919 58.6997L17.9584 34.1806L15.3808 32.6458L0.781521 57.1649L3.35919 58.6997ZM18.3705 29.5769L1.63966 57.6759L4.21732 59.2107L20.9481 31.1117L18.3705 29.5769ZM20.4915 31.5922L20.4917 31.592L18.8276 29.0959L18.8274 29.096L20.4915 31.5922ZM20.4917 31.592C21.1604 31.1462 21.3541 30.2595 20.9497 29.5781L18.3698 31.1093C17.9655 30.4281 18.1591 29.5415 18.8276 29.0959L20.4917 31.592ZM20.9481 31.1117C20.8337 31.3039 20.6776 31.4681 20.4915 31.5922L18.8274 29.096C18.6411 29.2202 18.485 29.3845 18.3705 29.5769L20.9481 31.1117ZM1.39137 59.8521C2.34341 60.4859 3.63219 60.1934 4.21732 59.2107L1.63966 57.6759C1.9325 57.1841 2.5775 57.0377 3.05398 57.3549L1.39137 59.8521ZM0.781521 57.1649C0.236613 58.0801 0.504798 59.2618 1.39137 59.8521L3.05398 57.3549C3.49768 57.6503 3.6319 58.2417 3.35919 58.6997L0.781521 57.1649ZM15.3808 28.0414C16.2254 29.46 16.2254 31.2272 15.3808 32.6458L17.9584 34.1806C19.3662 31.8163 19.3662 28.8709 17.9584 26.5066L15.3808 28.0414ZM1.39137 0.835197C0.504797 1.42548 0.236613 2.60715 0.781521 3.52231L3.35919 1.98751C3.6319 2.44553 3.49768 3.03692 3.05398 3.33234L1.39137 0.835197ZM4.21732 1.47655C3.63218 0.493824 2.3434 0.201332 1.39137 0.835197L3.05398 3.33234C2.57751 3.64958 1.9325 3.50319 1.63966 3.01136L4.21732 1.47655ZM20.4915 29.0951C20.6776 29.2192 20.8337 29.3834 20.9481 29.5756L18.3705 31.1104C18.485 31.3027 18.6411 31.467 18.8274 31.5912L20.4915 29.0951ZM18.3679 29.5812C18.0881 30.0554 18.0919 30.6411 18.3698 31.1093L20.9497 29.5781C21.2275 30.0462 21.2313 30.6318 20.9515 31.1059L18.3679 29.5812ZM20.9515 31.1059C21.3564 30.4199 21.1545 29.5371 20.4917 29.0952L18.8276 31.5914C18.165 31.1496 17.9631 30.267 18.3679 29.5812L20.9515 31.1059Z" fill="#FF9383"/>
</svg>
