<svg width="255" height="52" viewBox="0 0 255 52" fill="none" xmlns="http://www.w3.org/2000/svg">
<path d="M1 47V43.6122C1 42.3257 1.84378 41.1916 3.07506 40.8239C5.15884 40.201 8.39448 39.2347 10.7892 38.5188M1 47V4.91496C1 2.58752 3.59336 1.20211 5.52407 2.49729L23.0197 14.2373C23.8247 14.7777 24.3081 15.6848 24.3081 16.655V27.7799M1 47C4.85853 47 7.882 47 10.6875 47M10.7892 38.5188C10.7892 34.4004 10.7892 28.9626 10.7892 25.0547C10.7892 22.8195 13.2004 21.4214 15.1379 22.5304C20.5213 25.6116 24.6269 27.9623 30.5353 31.3444C31.441 31.8624 32 32.8277 32 33.8716V44.0895C32 45.6971 30.699 47 29.0937 47H24.3081C18.794 47 14.9994 47 10.6875 47M10.7892 38.5188L10.6875 47M10.7892 38.5188C10.7892 38.5188 27.6929 33.048 31.5156 31.9051" stroke="#A11CAF" stroke-width="2"/>
<path d="M38.5303 45.7612C38.5303 44.6105 38.7866 43.2718 39.2993 41.7451C39.8234 40.207 40.5013 38.6803 41.333 37.165C42.1761 35.6383 43.1388 34.1287 44.2212 32.6362C45.3036 31.1437 46.3916 29.8278 47.4854 28.6885C48.5791 27.5492 49.6615 26.6263 50.7324 25.9199C51.8034 25.2135 52.7262 24.8604 53.501 24.8604C53.9681 24.8604 54.4011 24.9857 54.7998 25.2363C55.21 25.487 55.5119 25.8857 55.7056 26.4326C54.1561 27.1162 52.6921 28.1017 51.3135 29.3892C49.9463 30.6766 48.4481 32.3514 46.8189 34.4136C45.2466 36.396 43.7541 38.7202 42.3413 41.3862C40.94 44.0409 40.2393 45.9207 40.2393 47.0259C40.2393 47.5841 40.5412 47.8633 41.145 47.8633C42.0565 47.8633 43.0534 47.4702 44.1358 46.6841C45.2295 45.8866 46.4258 44.7757 47.7246 43.3516C49.6956 41.2552 51.2964 38.9766 52.5269 36.5156C53.7573 34.0547 54.3726 32.2033 54.3726 30.9614C54.3726 30.3576 54.2359 29.8278 53.9624 29.3721C54.0763 29.224 54.2586 29.1043 54.5093 29.0132C54.7713 28.9106 54.9992 28.8594 55.1929 28.8594C55.7739 28.8594 56.0645 29.3151 56.0645 30.2266C56.0645 32.9268 54.2643 36.5384 50.6641 41.0615C49.6273 42.4059 48.5791 43.6193 47.5195 44.7017C46.46 45.784 45.3377 46.7126 44.1528 47.4873C42.9679 48.2507 41.9198 48.6323 41.0083 48.6323C40.1538 48.6323 39.5272 48.3646 39.1284 47.8291C38.7297 47.2936 38.5303 46.6043 38.5303 45.7612ZM52.6465 47.7607C52.6465 47.5557 52.6921 47.3335 52.7832 47.0942C52.8858 46.855 53.0396 46.5872 53.2446 46.291C53.4611 45.9834 53.6548 45.7214 53.8257 45.5049C53.9966 45.2884 54.2359 44.9979 54.5435 44.6333C54.8625 44.2573 55.096 43.9782 55.2442 43.7959C55.6771 44.1605 55.979 44.4282 56.1499 44.5991C56.3322 44.7586 56.4917 44.9694 56.6284 45.2314C56.7765 45.4935 56.8506 45.7726 56.8506 46.0688C56.8506 46.5246 56.543 47.0658 55.9277 47.6924C55.3125 48.3076 54.5549 48.8431 53.6548 49.2988C53.2788 49.071 53.0168 48.8431 52.8687 48.6152C52.7206 48.3874 52.6465 48.1025 52.6465 47.7607ZM63.7036 46.103C64.091 46.2284 64.4385 46.291 64.7461 46.291C65.7601 46.291 66.6602 46.0176 67.4463 45.4707C68.2438 44.9238 69.1211 44.0864 70.0781 42.9585C70.9554 41.8989 72.3283 40.019 74.1968 37.3188C73.8664 37.3416 73.3537 37.353 72.6587 37.353C71.6447 37.353 71.1548 37.0169 71.189 36.3447L74.9317 36.2422C76.0368 34.6471 77.1761 32.7843 78.3496 30.6538C79.5231 28.5119 80.1099 27.0479 80.1099 26.2617C80.1099 25.5667 79.6086 25.2192 78.606 25.2192C77.4439 25.2192 76.2817 25.5155 75.1196 26.1079C73.9575 26.689 73.0005 27.4751 72.2485 28.4663C71.4966 29.4461 71.1206 30.4601 71.1206 31.5083C71.1206 32.0552 71.2687 32.4824 71.565 32.79C71.8726 33.0863 72.2713 33.223 72.7612 33.2002C72.4081 33.804 71.8726 34.106 71.1548 34.106C70.5623 34.106 70.0781 33.9237 69.7022 33.5591C69.3376 33.1945 69.1553 32.6647 69.1553 31.9697C69.1553 31.1836 69.3547 30.4032 69.7534 29.6284C70.1522 28.8537 70.682 28.1587 71.3428 27.5435C72.0036 26.9282 72.7442 26.3813 73.5645 25.9028C74.3962 25.4243 75.2621 25.0597 76.1621 24.8091C77.0622 24.547 77.9224 24.416 78.7427 24.416C79.187 24.416 79.6029 24.4502 79.9902 24.5186C80.389 24.5755 80.7992 24.6781 81.2207 24.8262C81.6423 24.9743 81.9784 25.2135 82.229 25.5439C82.4797 25.863 82.605 26.256 82.605 26.7231C82.605 27.4751 82.3373 28.4321 81.8018 29.5942C81.1524 31.0298 79.9845 33.2002 78.2984 36.1055H78.3667C79.4149 36.0713 80.7821 36.0086 82.4683 35.9175C83.1633 34.7896 83.7101 33.9123 84.1089 33.2856C84.5191 32.659 85.0602 31.8672 85.7324 30.9102C86.4046 29.9531 87.0768 29.0588 87.749 28.2271C88.6947 27.0763 89.5549 26.2446 90.3296 25.7319C91.1157 25.2192 91.9816 24.9629 92.9273 24.9629C93.2804 24.9629 93.6906 25.0369 94.1577 25.1851C92.0158 26.8371 89.5036 29.8677 86.6211 34.2769C85.0602 36.6694 83.807 38.8968 82.8613 40.959C81.9157 43.0098 81.4429 44.6903 81.4429 46.0005C81.4429 47.0259 81.9214 47.5386 82.8784 47.5386C83.4253 47.5386 83.9266 47.3791 84.3823 47.0601C84.2 47.3677 83.8639 47.6525 83.374 47.9146C82.8955 48.1766 82.3486 48.3076 81.7334 48.3076C80.7878 48.3076 80.0529 48.057 79.5288 47.5557C79.0047 47.0544 78.7427 46.3138 78.7427 45.334C78.7427 44.3314 78.9706 43.2205 79.4263 42.0015C79.882 40.771 80.7422 39.0164 82.0068 36.7378C81.7334 36.772 80.5998 36.8517 78.606 36.9771L77.7344 37.0454C77.2217 37.9113 76.7887 38.6405 76.4356 39.2329C76.0824 39.814 75.6266 40.526 75.0684 41.3691C74.5101 42.2122 74.0031 42.9186 73.5474 43.4883C73.103 44.0579 72.5846 44.6618 71.9922 45.2998C71.3998 45.9264 70.8358 46.4334 70.3003 46.8208C69.7762 47.1968 69.2009 47.5101 68.5742 47.7607C67.959 48.0114 67.3495 48.1367 66.7456 48.1367C66.0506 48.1367 65.3955 47.9487 64.7803 47.5728C64.1651 47.1854 63.8062 46.6955 63.7036 46.103ZM85.8008 45.8979C85.8008 44.8726 86.0401 43.756 86.5186 42.5483C86.9971 41.3293 87.6579 40.1558 88.501 39.0278C89.3555 37.8999 90.3068 36.8688 91.355 35.9346C92.4146 35.0003 93.571 34.2541 94.8242 33.6958C96.0889 33.1261 97.3137 32.8413 98.4985 32.8413C99.0682 32.8413 99.5182 32.9723 99.8486 33.2344C100.19 33.485 100.361 33.8667 100.361 34.3794C100.361 34.4136 100.355 34.4705 100.344 34.5503C100.332 34.63 100.327 34.6927 100.327 34.7383C99.9854 34.499 99.541 34.3794 98.9942 34.3794C98.0941 34.3794 97.0231 34.8237 95.7813 35.7124C94.5394 36.6011 93.3887 37.6777 92.3291 38.9424C91.2695 40.1956 90.3638 41.5514 89.6118 43.0098C88.8599 44.4567 88.4839 45.6986 88.4839 46.7354C88.4839 47.4189 88.8371 47.7607 89.5435 47.7607C90.2726 47.7607 91.1841 47.305 92.2778 46.3936C93.3716 45.4707 94.3913 44.3826 95.3369 43.1294C96.294 41.8761 97.1143 40.5659 97.7979 39.1987C98.4815 37.8315 98.8233 36.7264 98.8233 35.8833C99.2106 36.0428 99.4955 36.265 99.6777 36.5498C99.8714 36.8232 99.9683 37.2106 99.9683 37.7119C99.9683 38.293 99.786 38.9766 99.4214 39.7627C99.0568 40.5488 98.5726 41.3464 97.9688 42.1553C97.3763 42.9528 96.6756 43.7503 95.8667 44.5479C95.0692 45.3454 94.2489 46.0518 93.4058 46.667C92.5627 47.2822 91.6911 47.7778 90.791 48.1538C89.891 48.5412 89.065 48.7349 88.313 48.7349C87.5041 48.7349 86.8831 48.4899 86.4502 48C86.0173 47.4987 85.8008 46.798 85.8008 45.8979ZM99.3359 45.2314C99.3359 44.0465 99.6493 42.8047 100.275 41.5059C100.913 40.207 101.757 38.9993 102.805 37.8828C103.864 36.7663 105.021 35.7523 106.274 34.8408C107.539 33.9294 108.843 33.2116 110.188 32.6875C111.532 32.1634 112.768 31.9014 113.896 31.9014C114.887 31.9014 115.582 32.0609 115.981 32.3799C116.38 32.6989 116.579 33.1546 116.579 33.7471C116.579 34.6243 116.163 35.4504 115.332 36.2251C114.5 36.9998 113.4 37.6379 112.033 38.1392C110.666 38.6405 109.162 38.9766 107.521 39.1475V39.2842C107.806 39.2614 108.085 39.25 108.359 39.25C109.658 39.25 110.575 39.4323 111.11 39.7969C111.657 40.1615 111.931 40.6799 111.931 41.3521C111.931 42.0926 111.646 42.8844 111.076 43.7275C110.518 44.5706 109.8 45.3397 108.923 46.0347C108.057 46.7297 107.054 47.3107 105.915 47.7778C104.787 48.2336 103.699 48.4614 102.651 48.4614C101.66 48.4614 100.856 48.188 100.241 47.6411C99.6379 47.0942 99.3359 46.291 99.3359 45.2314ZM101.882 46.3594C101.882 46.7354 101.99 47.0544 102.207 47.3164C102.423 47.5671 102.782 47.6924 103.283 47.6924C104.058 47.6924 104.895 47.2936 105.795 46.4961C106.695 45.6986 107.436 44.7814 108.017 43.7446C108.598 42.7078 108.889 41.8306 108.889 41.1128C108.889 40.7482 108.775 40.4292 108.547 40.1558C108.319 39.8823 107.932 39.7456 107.385 39.7456C106.405 39.7456 105.528 39.8368 104.753 40.019C103.91 41.1014 103.221 42.2179 102.685 43.3687C102.15 44.5194 101.882 45.5163 101.882 46.3594ZM105.317 39.1133C106.376 38.9082 107.556 38.481 108.854 37.8315C110.165 37.1821 111.298 36.4302 112.255 35.5757C113.224 34.7098 113.708 33.9408 113.708 33.2686C113.708 32.9382 113.526 32.7729 113.161 32.7729C112.375 32.7729 111.23 33.3825 109.726 34.6016C108.222 35.8206 106.752 37.3245 105.317 39.1133ZM113.281 45.8979C113.281 44.8726 113.52 43.756 113.999 42.5483C114.477 41.3293 115.138 40.1558 115.981 39.0278C116.835 37.8999 117.787 36.8688 118.835 35.9346C119.895 35.0003 121.051 34.2541 122.304 33.6958C123.569 33.1261 124.794 32.8413 125.979 32.8413C126.548 32.8413 126.998 32.9723 127.329 33.2344C127.67 33.485 127.841 33.8667 127.841 34.3794C127.841 34.4136 127.836 34.4705 127.824 34.5503C127.813 34.63 127.807 34.6927 127.807 34.7383C127.465 34.499 127.021 34.3794 126.474 34.3794C125.574 34.3794 124.503 34.8237 123.261 35.7124C122.019 36.6011 120.869 37.6777 119.809 38.9424C118.75 40.1956 117.844 41.5514 117.092 43.0098C116.34 44.4567 115.964 45.6986 115.964 46.7354C115.964 47.4189 116.317 47.7607 117.023 47.7607C117.753 47.7607 118.664 47.305 119.758 46.3936C120.852 45.4707 121.871 44.3826 122.817 43.1294C123.774 41.8761 124.594 40.5659 125.278 39.1987C125.961 37.8315 126.303 36.7264 126.303 35.8833C126.691 36.0428 126.975 36.265 127.158 36.5498C127.351 36.8232 127.448 37.2106 127.448 37.7119C127.448 38.293 127.266 38.9766 126.901 39.7627C126.537 40.5488 126.053 41.3464 125.449 42.1553C124.856 42.9528 124.156 43.7503 123.347 44.5479C122.549 45.3454 121.729 46.0518 120.886 46.667C120.043 47.2822 119.171 47.7778 118.271 48.1538C117.371 48.5412 116.545 48.7349 115.793 48.7349C114.984 48.7349 114.363 48.4899 113.93 48C113.497 47.4987 113.281 46.798 113.281 45.8979ZM127.158 45.6929C127.158 43.9155 127.819 42.1439 129.14 40.3779C130.473 38.6006 132.119 37.1081 134.079 35.9004C136.05 34.6813 138.05 33.8496 140.078 33.4053C140.328 32.2204 140.454 30.9956 140.454 29.731C140.454 27.5549 139.986 25.9199 139.052 24.8262C138.118 23.7324 136.825 23.1855 135.173 23.1855C133.111 23.1855 131.385 23.7894 129.995 24.9971C130.644 23.9603 131.59 23.1286 132.832 22.502C134.073 21.8639 135.378 21.5449 136.745 21.5449C141.257 21.5449 143.513 24.0059 143.513 28.9277C143.513 30.4772 143.308 32.0666 142.897 33.6958C142.499 35.3136 141.958 36.8289 141.274 38.2417C140.59 39.6545 139.787 40.9989 138.864 42.2749C137.953 43.5396 136.996 44.6276 135.993 45.5391C135.002 46.4391 133.971 47.1512 132.9 47.6753C131.84 48.1994 130.838 48.4614 129.892 48.4614C128.981 48.4614 128.297 48.2222 127.841 47.7437C127.386 47.2537 127.158 46.5701 127.158 45.6929ZM130.097 46.0005C130.097 46.9575 130.473 47.436 131.225 47.436C131.852 47.436 132.615 46.9746 133.515 46.0518C134.427 45.1289 135.298 44.001 136.13 42.668C136.973 41.3236 137.742 39.8709 138.437 38.3101C139.132 36.7492 139.611 35.3592 139.873 34.1401C138.369 34.6984 136.831 35.6782 135.258 37.0796C133.686 38.4696 132.467 39.9165 131.601 41.4204C131.271 41.9901 130.935 42.7135 130.593 43.5908C130.262 44.4681 130.097 45.2713 130.097 46.0005ZM139.497 44.8555C140.294 45.972 141.542 46.5303 143.239 46.5303C144.105 46.5303 144.954 46.3651 145.786 46.0347C146.617 45.7043 147.318 45.2998 147.888 44.8213C148.457 44.3314 148.913 43.813 149.255 43.2661C149.608 42.7078 149.785 42.2065 149.785 41.7622C149.785 41.3293 149.46 41.1128 148.811 41.1128C148.343 41.1128 147.745 41.2438 147.016 41.5059C146.298 41.7679 145.638 42.1154 145.034 42.5483C145.022 42.4914 145 42.3888 144.965 42.2407C144.943 42.0812 144.931 41.973 144.931 41.916C144.931 41.5742 145.102 41.2894 145.444 41.0615C145.569 40.9818 145.82 40.8394 146.196 40.6343C146.572 40.4178 146.834 40.2697 146.982 40.1899C148.349 39.3354 149.443 38.4297 150.263 37.4727C151.095 36.5156 151.511 35.5928 151.511 34.7041C151.511 34.4762 151.431 34.2996 151.271 34.1743C151.112 34.0376 150.907 33.9692 150.656 33.9692C149.995 33.9692 149.226 34.2939 148.349 34.9434C147.472 35.5814 146.686 36.3447 145.991 37.2334C145.307 38.1107 144.834 38.9253 144.572 39.6772C144.196 39.1987 144.008 38.6803 144.008 38.1221C144.008 37.3587 144.361 36.6068 145.068 35.8662C145.774 35.1143 146.76 34.4876 148.024 33.9863C149.289 33.485 150.645 33.2344 152.092 33.2344C152.946 33.2344 153.601 33.3597 154.057 33.6104C154.524 33.861 154.758 34.2256 154.758 34.7041C154.758 35.6611 154.108 36.6637 152.81 37.7119C151.522 38.7601 149.711 39.7627 147.375 40.7197L147.409 40.8906C148.412 40.5146 149.403 40.3267 150.383 40.3267C151.101 40.3267 151.63 40.4748 151.972 40.771C152.314 41.0558 152.485 41.4489 152.485 41.9502C152.485 42.8275 152.206 43.6991 151.647 44.5649C151.101 45.4308 150.411 46.1714 149.58 46.7866C148.748 47.4019 147.836 47.9032 146.845 48.2905C145.865 48.6779 144.943 48.8716 144.077 48.8716C143.154 48.8716 142.351 48.7406 141.667 48.4785C140.995 48.2279 140.454 47.7949 140.043 47.1797C139.633 46.5645 139.451 45.7897 139.497 44.8555ZM153.732 47.9316C153.482 47.681 153.356 47.3278 153.356 46.8721C153.356 46.4163 153.487 45.9093 153.75 45.3511C154.012 44.7928 154.57 43.8813 155.424 42.6167C157.122 40.1672 158.324 38.1961 159.03 36.7036C159.748 35.1997 160.107 34.1686 160.107 33.6104C160.107 33.485 160.073 33.3369 160.004 33.166C160.46 33.1204 160.802 33.0977 161.03 33.0977C161.85 33.0977 162.454 33.2002 162.841 33.4053C163.24 33.6104 163.439 33.9578 163.439 34.4478C163.439 34.8123 163.354 35.2282 163.183 35.6953C163.012 36.151 162.756 36.6523 162.414 37.1992C162.072 37.7461 161.787 38.1904 161.56 38.5322C161.332 38.8626 161.024 39.2899 160.637 39.814C160.09 40.5659 159.395 41.4945 158.552 42.5996C157.72 43.6934 157.036 44.5991 156.501 45.3169C155.965 46.0233 155.629 46.5075 155.493 46.7695C155.402 46.9062 155.356 47.0373 155.356 47.1626C155.356 47.3449 155.458 47.436 155.664 47.436C156.37 47.436 157.6 46.7126 159.355 45.2656C161.121 43.8073 162.619 42.3262 163.85 40.8223C163.986 40.6514 164.522 39.8823 165.456 38.5151C166.402 37.1479 167.165 36.0884 167.746 35.3364C168.908 33.8211 170.013 33.0635 171.062 33.0635C172.041 33.0635 172.884 33.3882 173.591 34.0376C172.827 34.6528 172.093 35.3079 171.386 36.0029C170.691 36.6865 169.746 37.7233 168.549 39.1133C167.456 40.4007 166.476 41.7508 165.61 43.1636C164.744 44.5763 164.311 45.7783 164.311 46.7695C164.311 47.4987 164.647 47.8633 165.319 47.8633C166.037 47.8633 166.897 47.5955 167.9 47.0601C168.914 46.5246 169.865 45.8923 170.754 45.1631C171.643 44.4225 172.423 43.7218 173.095 43.061C173.767 42.4002 174.223 41.8989 174.462 41.5571C174.702 41.7166 174.713 42.0186 174.497 42.4629C174.428 42.5996 174.178 42.8844 173.745 43.3174C173.323 43.7503 172.748 44.2687 172.019 44.8726C171.301 45.4764 170.537 46.0575 169.729 46.6157C168.92 47.174 168.042 47.6468 167.097 48.0342C166.162 48.4329 165.314 48.6323 164.55 48.6323C163.639 48.6323 162.967 48.4159 162.534 47.9829C162.112 47.5386 161.901 46.9632 161.901 46.2568C161.901 45.1403 162.26 43.9383 162.978 42.6509C162.329 43.3914 161.56 44.1662 160.671 44.9751C159.782 45.7726 158.768 46.5303 157.629 47.248C156.49 47.9544 155.544 48.3076 154.792 48.3076C154.336 48.3076 153.983 48.1823 153.732 47.9316ZM169.848 47.5386C169.848 47.3221 169.905 47.0715 170.019 46.7866C170.122 46.4904 170.304 46.1201 170.566 45.6758C170.839 45.2314 171.079 44.8498 171.284 44.5308C171.489 44.2004 171.813 43.7048 172.258 43.0439C172.714 42.3717 173.055 41.8647 173.283 41.5229C173.773 40.7938 174.126 40.2583 174.343 39.9165C174.571 39.5747 174.901 39.0392 175.334 38.3101C175.767 37.5809 176.086 36.9884 176.291 36.5327C176.507 36.0656 176.707 35.5529 176.889 34.9946C177.071 34.425 177.163 33.9294 177.163 33.5078C177.163 33.3483 177.151 33.2344 177.128 33.166C178.291 33.2116 179.111 33.3996 179.589 33.73C180.068 34.0604 180.307 34.5446 180.307 35.1826C180.307 35.7751 180.051 36.5384 179.538 37.4727C179.025 38.4069 178.513 39.193 178 39.8311L177.231 40.7881C179.27 40.5033 180.683 40.2469 181.469 40.019C182.107 39.2899 182.933 38.1335 183.947 36.5498C184.961 34.9548 185.537 33.7642 185.673 32.978C186.391 33.0578 187.018 33.2572 187.553 33.5762C188.1 33.8952 188.374 34.3395 188.374 34.9092C188.374 35.3193 188.123 35.9232 187.622 36.7207C187.132 37.5068 186.568 38.293 185.93 39.0791C185.292 39.8652 184.568 40.7767 183.759 41.8135C182.962 42.8389 182.352 43.6763 181.931 44.3257C181.27 45.3853 180.939 46.2227 180.939 46.8379C180.939 47.3848 181.196 47.6582 181.708 47.6582C182.369 47.6582 183.218 47.2993 184.255 46.5815C185.303 45.8638 186.3 45.0264 187.246 44.0693C188.191 43.1009 189.029 42.1951 189.758 41.3521C190.487 40.4976 190.965 39.8766 191.193 39.4893C191.387 39.6032 191.484 39.7684 191.484 39.9849C191.484 40.2013 191.376 40.4691 191.159 40.7881C191.011 40.9932 190.726 41.335 190.305 41.8135C189.895 42.292 189.285 42.9414 188.476 43.7617C187.679 44.5706 186.864 45.3226 186.032 46.0176C185.201 46.7126 184.289 47.3164 183.298 47.8291C182.318 48.3418 181.441 48.5981 180.666 48.5981C179.937 48.5981 179.367 48.4045 178.957 48.0171C178.558 47.6297 178.359 47.0999 178.359 46.4277C178.359 45.6758 178.57 44.8612 178.991 43.9839C179.424 43.0952 180.125 42.0072 181.093 40.7197C178.302 41.2552 176.826 41.5343 176.667 41.5571C175.676 42.6851 174.605 43.9896 173.454 45.4707C172.315 46.9404 171.489 48.1082 170.976 48.9741C170.224 48.7121 169.848 48.2336 169.848 47.5386ZM187.587 45.5562C187.587 44.5422 187.804 43.5054 188.237 42.4458C188.681 41.3862 189.262 40.4064 189.98 39.5063C190.698 38.6063 191.518 37.7575 192.441 36.96C193.375 36.151 194.332 35.4674 195.312 34.9092C196.292 34.3395 197.266 33.8895 198.234 33.5591C199.203 33.2287 200.074 33.0635 200.849 33.0635C202.513 33.0635 203.344 33.5648 203.344 34.5674C203.344 35.1029 202.957 35.9631 202.182 37.1479C201.829 37.6948 201.521 38.2645 201.259 38.8569C200.997 39.4494 200.821 39.8994 200.729 40.207L200.61 40.6855C199.186 40.207 198.474 39.4722 198.474 38.481C198.474 38.0708 198.633 37.6265 198.952 37.1479C199.283 36.6694 199.641 36.2536 200.029 35.9004C200.416 35.5472 200.769 35.1883 201.088 34.8237C201.419 34.4478 201.584 34.1515 201.584 33.9351C201.584 33.7186 201.43 33.6104 201.123 33.6104C200.747 33.6104 200.228 33.7756 199.567 34.106C198.907 34.425 198.189 34.8579 197.414 35.4048C196.639 35.9517 195.853 36.6182 195.056 37.4043C194.258 38.1904 193.529 39.0164 192.868 39.8823C192.219 40.7482 191.689 41.6995 191.279 42.7363C190.869 43.7731 190.664 44.77 190.664 45.7271C190.664 46.9803 191.262 47.6069 192.458 47.6069C193.461 47.6069 194.589 47.3221 195.842 46.7524C197.106 46.1828 198.297 45.4764 199.414 44.6333C200.53 43.7788 201.544 42.9186 202.456 42.0527C203.367 41.1868 204.09 40.395 204.626 39.6772C204.774 39.757 204.848 39.9051 204.848 40.1216C204.848 40.2697 204.785 40.4691 204.66 40.7197C204.569 40.8792 204.278 41.2267 203.789 41.7622C203.299 42.2863 202.592 42.9414 201.669 43.7275C200.758 44.5137 199.772 45.2656 198.713 45.9834C197.653 46.7012 196.44 47.3164 195.073 47.8291C193.706 48.3418 192.401 48.5981 191.159 48.5981C190.02 48.5981 189.137 48.3361 188.51 47.812C187.895 47.2879 187.587 46.536 187.587 45.5562ZM199.687 47.0259C199.687 46.5474 199.886 45.9948 200.285 45.3682C200.627 44.8441 201.242 43.9839 202.131 42.7876C203.031 41.5913 203.789 40.5602 204.404 39.6943C205.019 38.8171 205.589 37.7917 206.113 36.6182C206.637 35.4333 206.899 34.3737 206.899 33.4395C206.899 33.3255 206.888 33.2458 206.865 33.2002C207.047 33.1774 207.235 33.166 207.429 33.166C208.363 33.166 209.018 33.3198 209.394 33.6274C209.781 33.9351 209.975 34.3053 209.975 34.7383C209.975 35.627 209.645 36.6182 208.984 37.7119C208.323 38.8057 207.594 39.7855 206.796 40.6514C206.717 40.7539 206.717 40.8052 206.796 40.8052C206.831 40.8052 206.876 40.7881 206.933 40.7539C207.115 40.6058 207.565 40.2412 208.283 39.6602C209.012 39.0677 209.565 38.6234 209.941 38.3271C210.317 38.0195 210.812 37.6322 211.428 37.165C212.043 36.6865 212.601 36.2707 213.103 35.9175C213.911 35.3364 214.903 34.7383 216.076 34.123C217.261 33.5078 218.178 33.2002 218.828 33.2002C219.58 33.2002 219.956 33.4793 219.956 34.0376C219.956 34.3224 219.825 34.6699 219.562 35.0801C219.3 35.4902 218.879 35.9801 218.298 36.5498C217.717 37.1195 217.198 37.6151 216.743 38.0366C216.298 38.4468 215.643 39.0278 214.777 39.7798C213.923 40.5203 213.325 41.0444 212.983 41.3521C212.744 41.2039 212.539 40.9989 212.368 40.7368C212.197 40.4748 212.111 40.2013 212.111 39.9165C212.111 39.2215 212.521 38.5322 213.342 37.8486C213.729 37.5296 214.333 37.1081 215.153 36.584C215.985 36.0485 216.657 35.5928 217.17 35.2168C217.694 34.8294 217.956 34.5503 217.956 34.3794C217.956 34.2882 217.876 34.2427 217.717 34.2427C217.284 34.2427 216.418 34.6357 215.119 35.4219C213.832 36.1966 212.658 36.9827 211.599 37.7803C211.097 38.1676 210.323 38.7772 209.274 39.6089C208.226 40.4406 207.611 40.9248 207.429 41.0615C208.146 41.2552 208.773 41.8078 209.309 42.7192C209.742 43.437 210.277 44.3997 210.915 45.6074C211.553 46.8037 212.014 47.6354 212.299 48.1025C212.721 48.8431 213.16 49.3843 213.615 49.7261C214.071 50.0679 214.635 50.2388 215.307 50.2388C215.683 50.2388 216.053 50.159 216.418 49.9995C216.156 50.4097 215.723 50.7686 215.119 51.0762C214.515 51.3838 213.877 51.5376 213.205 51.5376C212.202 51.5376 211.405 51.3382 210.812 50.9395C210.231 50.5407 209.707 49.8514 209.24 48.8716C209.035 48.45 208.819 47.943 208.591 47.3506C208.363 46.7467 208.107 46.0404 207.822 45.2314C207.537 44.4225 207.326 43.8301 207.189 43.4541C207.064 43.0781 206.905 42.7876 206.711 42.5825C206.529 42.366 206.221 42.2008 205.788 42.0869C205.082 42.8503 204.125 43.9668 202.917 45.4365C201.721 46.9176 200.986 47.9601 200.712 48.564C200.69 48.5526 200.65 48.5355 200.593 48.5127C200.547 48.4899 200.467 48.4272 200.354 48.3247C200.24 48.2336 200.137 48.131 200.046 48.0171C199.955 47.9146 199.875 47.7778 199.807 47.6069C199.727 47.4246 199.687 47.231 199.687 47.0259ZM216.196 45.9321C216.196 44.9181 216.441 43.8472 216.931 42.7192C217.671 41.0216 218.719 39.4323 220.075 37.9512C221.442 36.4587 222.889 35.2909 224.416 34.4478C225.954 33.5933 227.355 33.166 228.62 33.166C229.828 33.166 230.432 33.7129 230.432 34.8066V35.0459C230.147 34.818 229.702 34.7041 229.099 34.7041C227.743 34.7041 225.903 35.9403 223.579 38.4126C222.53 39.5063 221.522 40.8906 220.554 42.5654C219.585 44.2288 219.101 45.5277 219.101 46.4619C219.101 46.9746 219.323 47.231 219.768 47.231C220.132 47.231 220.645 46.9632 221.306 46.4277C221.978 45.8923 222.679 45.2144 223.408 44.394C224.148 43.5737 224.832 42.7876 225.458 42.0356C226.085 41.2723 226.66 40.5488 227.185 39.8652C227.709 39.1816 227.976 38.8341 227.988 38.8228C228.033 38.7658 228.563 38.0366 229.577 36.6353C230.603 35.2339 231.167 34.4819 231.269 34.3794C231.668 33.9465 231.993 33.6388 232.243 33.4565C232.494 33.2629 232.779 33.166 233.098 33.166C233.599 33.166 234.032 33.3027 234.396 33.5762C234.761 33.8382 235.12 34.2712 235.473 34.875C234.96 35.2852 234.077 36.1966 232.824 37.6094C232.357 38.1449 231.85 38.7601 231.303 39.4551C230.768 40.1501 230.192 40.9419 229.577 41.8306C228.973 42.7078 228.472 43.5794 228.073 44.4453C227.686 45.3112 227.492 46.029 227.492 46.5986C227.492 47.3734 227.823 47.7607 228.483 47.7607C229.144 47.7607 230.01 47.3848 231.081 46.6328C232.163 45.8809 233.194 45.0036 234.174 44.001C235.166 42.9984 236.043 42.047 236.806 41.147C237.569 40.2469 238.071 39.5918 238.31 39.1816C238.458 39.25 238.544 39.3924 238.566 39.6089C238.589 39.8254 238.538 40.0304 238.413 40.2241C238.299 40.4064 238.002 40.7824 237.524 41.3521C237.057 41.9217 236.413 42.6281 235.593 43.4712C234.784 44.3143 233.941 45.1175 233.063 45.8809C232.186 46.6442 231.252 47.2993 230.261 47.8462C229.27 48.3931 228.404 48.6665 227.663 48.6665C226.9 48.6665 226.307 48.4386 225.886 47.9829C225.464 47.5272 225.253 46.8778 225.253 46.0347C225.253 45.3169 225.362 44.6105 225.578 43.9155C225.806 43.2205 226.131 42.423 226.552 41.5229C226.529 41.5457 226.376 41.7508 226.091 42.1382C225.817 42.5142 225.618 42.7819 225.493 42.9414C225.379 43.1009 225.151 43.3971 224.809 43.8301C224.479 44.2516 224.211 44.5763 224.006 44.8042C223.801 45.0321 223.516 45.3454 223.151 45.7441C222.798 46.1315 222.485 46.4391 222.211 46.667C221.949 46.8949 221.636 47.1512 221.271 47.436C220.918 47.7209 220.588 47.943 220.28 48.1025C219.984 48.262 219.665 48.3931 219.323 48.4956C218.993 48.6095 218.674 48.6665 218.366 48.6665C217.671 48.6665 217.136 48.4272 216.76 47.9487C216.384 47.4702 216.196 46.798 216.196 45.9321ZM234.021 46.5986C234.021 46.1201 234.208 45.522 234.584 44.8042C234.972 44.075 235.393 43.3971 235.849 42.7705C236.316 42.1439 236.738 41.4717 237.114 40.7539C237.501 40.0247 237.695 39.4209 237.695 38.9424C238.253 39.1589 238.743 39.4722 239.165 39.8823C239.586 40.2925 239.797 40.7254 239.797 41.1812C239.797 41.6027 239.615 42.104 239.25 42.6851C238.885 43.2547 238.481 43.7731 238.037 44.2402C237.604 44.7074 237.205 45.1916 236.84 45.6929C236.476 46.1828 236.293 46.5645 236.293 46.8379C236.293 47.1911 236.47 47.3677 236.823 47.3677C237.666 47.3677 239.051 46.6157 240.976 45.1118C242.913 43.6079 244.525 42.1211 245.812 40.6514C245.345 40.8109 244.73 40.8906 243.967 40.8906C243.295 40.8906 242.736 40.7254 242.292 40.395C241.848 40.0646 241.625 39.6146 241.625 39.0449C241.625 38.0423 242.041 37.0682 242.873 36.1226C243.716 35.1655 244.821 34.3908 246.188 33.7983C247.567 33.2059 248.997 32.9097 250.478 32.9097C252.392 32.9097 253.674 33.5078 254.323 34.7041C253.537 35.9915 252.21 38.0651 250.341 40.9248C249.361 42.4287 248.638 43.6421 248.171 44.5649C247.704 45.4764 247.47 46.2227 247.47 46.8037C247.47 47.0999 247.556 47.3563 247.727 47.5728C247.897 47.7892 248.148 47.8975 248.479 47.8975C248.98 47.8975 249.367 47.7778 249.641 47.5386C249.139 48.245 248.507 48.5981 247.744 48.5981C246.958 48.5981 246.354 48.3817 245.932 47.9487C245.511 47.5044 245.3 46.8892 245.3 46.103C245.3 45.6245 245.374 45.1289 245.522 44.6162C245.67 44.0921 245.938 43.4598 246.325 42.7192C246.713 41.9787 247.066 41.335 247.385 40.7881C247.715 40.2298 248.245 39.3639 248.974 38.1904C249.703 37.0169 250.296 36.0428 250.751 35.2681C250.968 34.9035 251.076 34.5959 251.076 34.3452C251.076 33.9009 250.677 33.6787 249.88 33.6787C249.06 33.6787 248.211 33.9863 247.333 34.6016C246.456 35.2168 245.738 35.9574 245.18 36.8232C244.622 37.6891 244.343 38.4867 244.343 39.2158C244.343 39.7741 244.719 40.0532 245.471 40.0532C245.63 40.0532 245.807 40.0418 246 40.019C246.206 39.9849 246.371 39.9564 246.496 39.9336L246.667 39.8823C246.713 39.9963 246.735 40.1216 246.735 40.2583C246.735 40.4064 246.684 40.5488 246.582 40.6855C245.887 41.5286 245.078 42.3945 244.155 43.2832C243.243 44.1605 242.298 44.9922 241.318 45.7783C240.338 46.5531 239.364 47.1911 238.396 47.6924C237.438 48.1823 236.635 48.4272 235.986 48.4272C235.393 48.4272 234.915 48.2677 234.55 47.9487C234.197 47.6183 234.021 47.1683 234.021 46.5986Z" fill="#A11CAF"/>
</svg>
