<svg width="33" height="48" viewBox="0 0 33 48" fill="none" xmlns="http://www.w3.org/2000/svg">
<path d="M1 47V43.6122C1 42.3257 1.84378 41.1916 3.07506 40.8239C5.15884 40.201 8.39448 39.2347 10.7892 38.5188M1 47V4.91496C1 2.58752 3.59336 1.20211 5.52407 2.49729L23.0197 14.2373C23.8247 14.7777 24.3081 15.6848 24.3081 16.655V27.7799M1 47C4.85853 47 7.882 47 10.6875 47M10.7892 38.5188C10.7892 34.4004 10.7892 28.9626 10.7892 25.0547C10.7892 22.8195 13.2004 21.4214 15.1379 22.5304C20.5213 25.6116 24.6269 27.9623 30.5353 31.3444C31.441 31.8624 32 32.8277 32 33.8716V44.0895C32 45.6971 30.699 47 29.0937 47H24.3081C18.794 47 14.9994 47 10.6875 47M10.7892 38.5188L10.6875 47M10.7892 38.5188C10.7892 38.5188 27.6929 33.048 31.5156 31.9051" stroke="#A11CAF" stroke-width="2"/>
</svg>
